<svg width="75" height="50" viewBox="0 0 75 50" fill="none" xmlns="http://www.w3.org/2000/svg">
<path d="M63.9956 49.8462C63.9917 49.8462 63.9882 49.8462 63.9847 49.8462H12.155C12.1472 49.8462 12.1401 49.8462 12.1323 49.8462H3.9255C2.03654 49.8462 0.5 48.3092 0.5 46.4207V3.57912C0.5 1.69055 2.03693 0.153625 3.9255 0.153625H71.0749C72.9635 0.153625 74.5 1.69055 74.5 3.57912V46.4207C74.5 48.3092 72.9631 49.8462 71.0749 49.8462H64.0073C64.0034 49.8462 63.9995 49.8462 63.9956 49.8462ZM64.6817 48.285H71.0749C72.1029 48.285 72.9389 47.4487 72.9389 46.4207V3.57912C72.9389 2.55112 72.1025 1.71475 71.0749 1.71475H3.9255C2.89789 1.71475 2.06112 2.55112 2.06112 3.57912V46.4207C2.06112 47.4487 2.89789 48.285 3.9255 48.285H11.4579L12.2057 42.5936C12.4617 40.6461 14.136 39.1774 16.1003 39.1774H60.0393C62.0032 39.1774 63.6775 40.6461 63.9339 42.5936L64.6817 48.285ZM13.0327 48.285H63.1069L62.3857 42.7969C62.2315 41.6233 61.223 40.7386 60.0393 40.7386H16.1007C14.917 40.7386 13.9081 41.6237 13.7539 42.7969L13.0327 48.285ZM57.8432 46.7547H51.7935C51.3626 46.7547 51.0129 46.405 51.0129 45.9742V43.049C51.0129 42.6181 51.3626 42.2685 51.7935 42.2685H57.8432C58.2741 42.2685 58.6238 42.6181 58.6238 43.049V45.9742C58.6238 46.4054 58.2741 46.7547 57.8432 46.7547ZM52.574 45.1936H57.0626V43.8296H52.574V45.1936ZM29.8374 46.7547H26.9127C26.4818 46.7547 26.1321 46.405 26.1321 45.9742V43.049C26.1321 42.6181 26.4818 42.2685 26.9127 42.2685H29.8374C30.2683 42.2685 30.618 42.6181 30.618 43.049V45.9742C30.618 46.4054 30.2683 46.7547 29.8374 46.7547ZM27.6932 45.1936H29.0569V43.8296H27.6932V45.1936ZM21.0936 46.7547H18.1688C17.7379 46.7547 17.3882 46.405 17.3882 45.9742V43.049C17.3882 42.6181 17.7379 42.2685 18.1688 42.2685H21.0936C21.5244 42.2685 21.8741 42.6181 21.8741 43.049V45.9742C21.8741 46.4054 21.5244 46.7547 21.0936 46.7547ZM18.949 45.1936H20.3126V43.8296H18.949V45.1936ZM22.5407 37.1327C13.7614 37.1327 6.61843 29.9902 6.61843 21.2105C6.61843 12.4307 13.7614 5.28816 22.5407 5.28816C31.3201 5.28816 38.463 12.4307 38.463 21.2105C38.463 29.9902 31.3201 37.1327 22.5407 37.1327ZM22.5407 6.84968C14.6219 6.84968 8.17956 13.292 8.17956 21.2108C8.17956 29.1296 14.6219 35.572 22.5407 35.572C30.4595 35.572 36.9019 29.1296 36.9019 21.2108C36.9019 13.292 30.4595 6.84968 22.5407 6.84968ZM22.5407 34.361C15.2897 34.361 9.3906 28.4619 9.3906 21.2108C9.3906 13.9598 15.2897 8.06033 22.5407 8.06033C22.9716 8.06033 23.3213 8.41002 23.3213 8.84089C23.3213 9.27176 22.9716 9.62145 22.5407 9.62145C16.1507 9.62145 10.9517 14.8204 10.9517 21.2105C10.9517 27.6005 16.1507 32.7995 22.5407 32.7995C22.9716 32.7995 23.3213 33.1492 23.3213 33.58C23.3213 34.0109 22.9716 34.361 22.5407 34.361ZM55.6163 31.5689C49.9045 31.5689 45.2578 26.9222 45.2578 21.2108C45.2578 15.4995 49.9045 10.8524 55.6163 10.8524C61.3276 10.8524 65.9743 15.4991 65.9743 21.2108C65.9743 26.9226 61.3272 31.5689 55.6163 31.5689ZM55.6163 12.4135C50.7655 12.4135 46.8189 16.36 46.8189 21.2108C46.8189 26.0616 50.7655 30.0078 55.6163 30.0078C60.4671 30.0078 64.4132 26.0616 64.4132 21.2108C64.4132 16.36 60.4667 12.4135 55.6163 12.4135ZM55.6163 28.9123C51.3692 28.9123 47.9145 25.4571 47.9145 21.2108C47.9145 16.9646 51.3696 13.5094 55.6163 13.5094C56.0471 13.5094 56.3968 13.8591 56.3968 14.29C56.3968 14.7209 56.0471 15.0706 55.6163 15.0706C52.2302 15.0706 49.4756 17.8252 49.4756 21.2108C49.4756 24.5965 52.2306 27.3511 55.6163 27.3511C56.0471 27.3511 56.3968 27.7008 56.3968 28.1317C56.3968 28.5626 56.0471 28.9123 55.6163 28.9123ZM55.6163 26.3633C52.7754 26.3633 50.4638 24.0521 50.4638 21.2108C50.4638 18.3696 52.7754 16.0584 55.6163 16.0584C58.4571 16.0584 60.7687 18.3696 60.7687 21.2108C60.7687 24.0521 58.4571 26.3633 55.6163 26.3633ZM55.6163 17.6191C53.636 17.6191 52.0249 19.2302 52.0249 21.2105C52.0249 23.1907 53.636 24.8018 55.6163 24.8018C57.5965 24.8018 59.2076 23.1907 59.2076 21.2105C59.2076 19.2302 57.5965 17.6191 55.6163 17.6191ZM22.5407 26.3633C19.6999 26.3633 17.3882 24.0521 17.3882 21.2108C17.3882 18.3696 19.6999 16.0584 22.5407 16.0584C25.3816 16.0584 27.6932 18.3696 27.6932 21.2108C27.6932 24.0521 25.3816 26.3633 22.5407 26.3633ZM22.5407 17.6191C20.5604 17.6191 18.9494 19.2302 18.9494 21.2105C18.9494 23.1907 20.5604 24.8018 22.5407 24.8018C24.521 24.8018 26.1321 23.1907 26.1321 21.2105C26.1321 19.2302 24.521 17.6191 22.5407 17.6191Z" fill="#EEEEEE"/>
</svg>
