<svg width="59" height="72" viewBox="0 0 59 72" fill="none" xmlns="http://www.w3.org/2000/svg">
<path d="M53.146 72H47.4277C47.0536 72 46.75 71.6964 46.75 71.3223V68.7175H12.2496V71.3223C12.2496 71.6964 11.9461 72 11.572 72H5.85367C5.47961 72 5.17603 71.6964 5.17603 71.3223V68.7175H3.92577C1.98296 68.7175 0.402344 67.1369 0.402344 65.1944V13.1331C0.402344 11.1903 1.98296 9.60971 3.92577 9.60971H14.2541V2.92676C14.2541 1.31294 15.5671 0 17.1812 0H41.8184C43.4326 0 44.7455 1.31294 44.7455 2.92676V9.60971H55.0742C57.0167 9.60971 58.5973 11.1903 58.5973 13.1331V65.1944C58.5973 67.1369 57.0167 68.7175 55.0742 68.7175H53.8236V71.3223C53.8236 71.6964 53.52 72 53.146 72ZM48.1053 70.6447H52.4683V68.7175H48.1053V70.6447ZM6.53132 70.6447H10.8944V68.7175H6.53132V70.6447ZM53.146 67.3625H55.0742C56.2696 67.3625 57.242 66.3901 57.242 65.1947V13.1331C57.242 11.9378 56.2696 10.965 55.0742 10.965H3.92577C2.7304 10.965 1.75764 11.9378 1.75764 13.1331V65.1944C1.75764 66.3898 2.7304 67.3622 3.92577 67.3622H53.146V67.3625ZM15.6094 9.60937H43.3899V4.15059H15.6094V9.60937ZM15.6148 2.79529H43.3848C43.3177 1.98991 42.6411 1.35529 41.8184 1.35529H17.1812C16.3586 1.35529 15.6819 1.98991 15.6148 2.79529ZM21.7791 63.5853C21.7767 63.5853 21.7743 63.5853 21.7719 63.5853H6.08069C5.70663 63.5853 5.40304 63.2817 5.40304 62.9077V55.8219C5.40304 55.4478 5.70663 55.1442 6.08069 55.1442H21.7797C22.1538 55.1442 22.4574 55.4478 22.4574 55.8219V62.9012C22.4581 62.9775 22.4462 63.0534 22.4215 63.1269L22.4211 63.1272V63.1279C22.3937 63.2072 22.3523 63.2797 22.2998 63.3427C22.2378 63.4169 22.1633 63.4745 22.0813 63.5152C22.0006 63.5552 21.9105 63.5796 21.8153 63.5846C21.8153 63.5846 21.8153 63.5846 21.815 63.5846H21.8146C21.8028 63.585 21.7913 63.5853 21.7791 63.5853ZM8.72453 62.23H19.1362C17.8304 61.6747 16.0269 61.139 13.9306 61.139C11.8342 61.139 10.0307 61.6747 8.72453 62.23ZM13.9302 59.7837C17.1704 59.7837 19.7339 60.9113 21.1021 61.6777V56.4995H6.75833V61.6777C7.50578 61.2593 8.60967 60.7328 9.98597 60.3411L9.47333 58.3295C9.38117 57.9669 9.60005 57.598 9.96259 57.5051C10.3268 57.4113 10.6944 57.6322 10.7869 57.9944L11.3053 60.0297C12.1158 59.8779 12.9951 59.7837 13.9302 59.7837ZM49.5243 63.1526C47.5818 63.1526 46.0016 61.5724 46.0016 59.6299C46.0016 57.6878 47.5818 56.1075 49.5243 56.1075C51.235 56.1075 52.6652 57.333 52.9817 58.9522H53.3357C53.7098 58.9522 54.0134 59.2558 54.0134 59.6299C54.0134 60.004 53.7098 60.3075 53.3357 60.3075H52.9817C52.6652 61.9271 51.2354 63.1526 49.5243 63.1526ZM49.5243 57.4624C48.3293 57.4624 47.3568 58.4345 47.3568 59.6296C47.3568 60.8246 48.3293 61.797 49.5243 61.797C50.4828 61.797 51.298 61.1712 51.5833 60.3072H51.4031C51.029 60.3072 50.7254 60.0036 50.7254 59.6296C50.7254 59.2555 51.029 58.9519 51.4031 58.9519H51.5833C51.298 58.0876 50.4828 57.4624 49.5243 57.4624ZM40.1653 63.1526C38.2228 63.1526 36.6426 61.5724 36.6426 59.6299C36.6426 57.6878 38.2228 56.1075 40.1653 56.1075C40.9246 56.1075 41.6284 56.3491 42.2047 56.759L42.4449 56.5188C42.7095 56.2542 43.1385 56.2542 43.4031 56.5188C43.6677 56.7834 43.6677 57.2124 43.4031 57.477L43.1385 57.7416C43.4865 58.2878 43.6884 58.9356 43.6884 59.6299C43.6881 61.5724 42.1078 63.1526 40.1653 63.1526ZM40.1653 57.4624C38.9703 57.4624 37.9979 58.4345 37.9979 59.6296C37.9979 60.8246 38.9703 61.797 40.1653 61.797C41.3603 61.797 42.3328 60.8246 42.3328 59.6296C42.3328 59.3121 42.2643 59.0105 42.141 58.7384L42.0363 58.8431C41.7717 59.1078 41.3427 59.1078 41.0781 58.8431C40.8135 58.5785 40.8135 58.1496 41.0781 57.885L41.2241 57.7389C40.9107 57.5631 40.5495 57.4624 40.1653 57.4624ZM30.8063 63.1526C28.8642 63.1526 27.2839 61.5724 27.2839 59.6299C27.2839 57.9192 28.5094 56.4893 30.1287 56.1729V55.8188C30.1287 55.4447 30.4323 55.1412 30.8063 55.1412C31.1804 55.1412 31.484 55.4447 31.484 55.8188V56.1729C33.1036 56.4897 34.3291 57.9192 34.3291 59.6299C34.3291 61.5724 32.7488 63.1526 30.8063 63.1526ZM30.1287 57.5709C29.2643 57.8562 28.6392 58.671 28.6392 59.6296C28.6392 60.8246 29.6113 61.797 30.8063 61.797C32.0014 61.797 32.9738 60.8246 32.9738 59.6296C32.9738 58.671 32.348 57.8558 31.484 57.5709V57.7508C31.484 58.1248 31.1804 58.4284 30.8063 58.4284C30.4323 58.4284 30.1287 58.1248 30.1287 57.7508V57.5709ZM35.149 48.096C35.147 48.096 35.1446 48.096 35.1423 48.096H23.8483C23.7497 48.0916 23.6839 48.0831 23.6053 48.0536C23.6046 48.053 23.6043 48.053 23.6036 48.053C23.6033 48.0526 23.6026 48.0526 23.6023 48.0523C23.6023 48.0523 23.6023 48.0523 23.6019 48.0523C23.5372 48.0279 23.4769 47.9933 23.423 47.951L9.65765 37.3289C9.63867 37.3143 9.62071 37.299 9.60377 37.2828C6.75698 35.1336 4.91344 31.7224 4.91344 27.8882C4.91344 21.4011 10.191 16.1236 16.6781 16.1236C23.1652 16.1236 28.4427 21.4011 28.4427 27.8882C28.4427 34.3753 23.1652 39.6529 16.6781 39.6529C15.992 39.6529 15.3187 39.5936 14.6648 39.4804L23.1645 46.039V44.0257C23.1645 43.6516 23.4681 43.3481 23.8422 43.3481H35.149C35.5231 43.3481 35.8267 43.6516 35.8267 44.0257V46.0458L44.404 39.4807C40.7708 40.096 36.9028 39.005 34.1051 36.207C31.8828 33.985 30.6589 31.0308 30.6589 27.8882C30.6589 24.7456 31.8828 21.7914 34.1051 19.5694C36.3271 17.3471 39.2813 16.1233 42.4239 16.1233C45.5665 16.1233 48.5204 17.3471 50.7427 19.5694C55.3297 24.1564 55.3297 31.6197 50.7427 36.207C50.409 36.5411 50.0593 36.8504 49.6974 37.1357C49.6927 37.1395 49.6886 37.1429 49.6839 37.1462C49.6073 37.2066 49.5307 37.2652 49.4531 37.3228L35.5661 47.952C35.5051 47.9994 35.4364 48.0367 35.3615 48.0611C35.3615 48.0611 35.3611 48.0608 35.3601 48.0618C35.3598 48.0618 35.3591 48.0621 35.3581 48.0621C35.29 48.0852 35.2195 48.096 35.149 48.096ZM24.5195 46.7407H34.471V44.7037H24.5195V46.7407ZM9.25445 35.1784C11.1441 37.1025 13.7744 38.2979 16.6781 38.2979C19.5818 38.2979 22.2121 37.1025 24.1017 35.1784L19.3744 32.1039C18.5955 32.604 17.6701 32.894 16.6781 32.894C15.6857 32.894 14.7603 32.604 13.9814 32.1039L9.25445 35.1784ZM32.0146 27.7927C32.0142 27.8249 32.0139 27.8564 32.0139 27.8886C32.0139 30.6689 33.0968 33.283 35.063 35.2492C37.0918 37.278 39.758 38.2925 42.4236 38.2928C42.4551 38.2928 42.4869 38.2925 42.5184 38.2925L41.3492 32.7758C40.4452 32.5786 39.5859 32.1293 38.8846 31.4276C38.1978 30.7408 37.7346 29.889 37.5333 28.962L32.0146 27.7927ZM42.7566 32.8805L43.83 37.9448L45.598 37.5704L44.5107 32.4383C43.9534 32.6931 43.3577 32.8408 42.7566 32.8805ZM45.7288 31.6475L46.9215 37.2767C47.5191 36.9911 48.0938 36.6458 48.6386 36.2399L48.8507 36.0776C49.174 35.8235 49.486 35.547 49.7842 35.2492C53.2944 31.739 53.7691 26.3246 51.2069 22.3L47.1786 26.3283C47.7451 28.0641 47.3399 30.0506 45.9626 31.4279C45.8867 31.5038 45.8084 31.5773 45.7288 31.6475ZM7.5871 32.4898L8.5724 34.0053L12.7931 31.2602C12.3818 30.8109 12.0572 30.2925 11.8342 29.728L7.5871 32.4898ZM20.4434 31.1826L24.7834 34.0047L25.7687 32.4894L21.3708 29.6298C21.1566 30.2044 20.8402 30.7293 20.4434 31.1826ZM15.2889 24.5135C13.9634 25.0607 13.0279 26.3679 13.0279 27.8889C13.0279 29.9015 14.6651 31.5387 16.6777 31.5387C17.5123 31.5387 18.2821 31.2571 18.8977 30.7838C18.9099 30.773 18.9224 30.7621 18.9356 30.7516C19.6628 30.1777 20.1402 29.3584 20.2801 28.4449C20.2838 28.4195 20.2889 28.3948 20.2957 28.37C20.3167 28.2125 20.3275 28.0515 20.3275 27.8882C20.3275 26.3669 19.392 25.0601 18.0666 24.5125C18.0476 24.5071 18.0293 24.501 18.011 24.4936C17.5837 24.3255 17.1389 24.2394 16.6889 24.2381C16.6872 24.2377 16.6852 24.2381 16.6835 24.2381C16.6794 24.2381 16.6764 24.2381 16.6723 24.2381C16.6706 24.2381 16.6686 24.2381 16.6669 24.2381C16.2166 24.2394 15.7714 24.3255 15.3448 24.4936C15.3262 24.5013 15.3079 24.5078 15.2889 24.5135ZM41.9492 31.5058C41.9648 31.5069 41.9801 31.5079 41.9956 31.5099C42.9128 31.6187 43.8327 31.3764 44.5775 30.8292C44.5985 30.814 44.6202 30.7997 44.6422 30.7872C44.7682 30.6906 44.8892 30.5846 45.0044 30.4694C46.0802 29.3933 46.3424 27.8076 45.7918 26.4824C45.7827 26.4655 45.7742 26.4482 45.7664 26.4309C45.5831 26.0098 45.3293 25.6344 45.0118 25.3152C45.0115 25.3152 45.0115 25.3149 45.0112 25.3149C45.0102 25.3135 45.0091 25.3125 45.0081 25.3115C45.0068 25.3101 45.0054 25.3088 45.0041 25.3074C45.0027 25.3061 45.0013 25.3047 45 25.3037C44.6798 24.9842 44.303 24.729 43.8805 24.5454C43.8571 24.5352 43.8341 24.5237 43.8124 24.5108C43.3774 24.3319 42.9074 24.2381 42.4229 24.2381C41.4478 24.2381 40.5312 24.6176 39.8421 25.3071C39.1526 25.9962 38.7731 26.9128 38.7731 27.8879C38.7731 28.8627 39.1529 29.7792 39.8421 30.4687C40.4337 31.0603 41.1784 31.4056 41.9492 31.5058ZM21.6727 28.2098L26.4968 31.3469C26.879 30.2644 27.0871 29.1005 27.0871 27.8889C27.0871 22.9251 23.5938 18.7613 18.9367 17.7266V23.4229C20.5647 24.2496 21.6825 25.9413 21.6825 27.8889C21.6828 27.9966 21.6794 28.1034 21.6727 28.2098ZM14.4191 17.7262C9.762 18.761 6.26873 22.9248 6.26873 27.8889C6.26873 29.1002 6.47677 30.2644 6.85896 31.3466L11.6828 28.2094C11.6757 28.1034 11.6726 27.9963 11.6726 27.8889C11.6726 25.9413 12.7911 24.2499 14.4188 23.4229V17.7262H14.4191ZM32.3673 26.4821L37.2921 27.5257C37.3189 26.9172 37.4561 26.3208 37.6977 25.7641L32.7417 24.7138L32.3673 26.4821ZM45.9734 24.3601C46.1872 24.5752 46.3773 24.8049 46.544 25.0462L50.3253 21.2652L49.0472 19.9875L45.267 23.7678C45.5116 23.9375 45.7427 24.13 45.9578 24.3445H45.9582C45.9599 24.3462 45.9616 24.3482 45.9633 24.3499C45.965 24.3516 45.9667 24.3533 45.9683 24.3546C45.9683 24.355 45.9687 24.355 45.9687 24.3553C45.9697 24.3567 45.9714 24.3584 45.9734 24.3601C45.9731 24.3601 45.9731 24.3601 45.9734 24.3601ZM33.0307 23.3897L38.6643 24.5833C38.7348 24.5037 38.8083 24.4254 38.8842 24.3496C39.8292 23.4042 41.0862 22.8835 42.4232 22.8835C42.9623 22.8835 43.4885 22.9682 43.9859 23.1308L48.0135 19.1035C46.3587 18.0457 44.4345 17.4789 42.4232 17.4789C39.6428 17.4789 37.0288 18.5618 35.0626 20.528C34.2166 21.3747 33.5339 22.3413 33.0307 23.3897ZM16.6889 22.8835C16.9935 22.8841 17.292 22.9123 17.5817 22.9651V17.6178H15.7744V22.9651C16.0638 22.9123 16.3623 22.8841 16.6669 22.8835C16.6672 22.8835 16.6676 22.8835 16.6676 22.8835C16.6693 22.8835 16.6706 22.8835 16.6723 22.8835C16.6737 22.8835 16.6757 22.8835 16.6784 22.8835C16.6808 22.8835 16.6828 22.8835 16.6845 22.8835C16.6855 22.8831 16.6869 22.8831 16.6889 22.8835Z" fill="#EEEEEE"/>
</svg>
