<svg width="71" height="57" viewBox="0 0 71 57" fill="none" xmlns="http://www.w3.org/2000/svg">
<path d="M70.2852 56.5331H0.714768C0.320216 56.5331 0 56.2129 0 55.8183V13.4087C0 13.0141 0.320216 12.6939 0.714768 12.6939H14.1016V1.1815C14.1016 0.786952 14.4219 0.466736 14.8164 0.466736H56.1836C56.5781 0.466736 56.8983 0.786952 56.8983 1.1815V12.6939H70.2852C70.6798 12.6939 71 13.0141 71 13.4087V55.8183C71 56.2129 70.6801 56.5331 70.2852 56.5331ZM1.42954 55.1036H69.5705V24.4114H1.42954V55.1036ZM1.42954 22.9819H69.5705V14.1234H1.42954V22.9819ZM54.0243 12.6939H55.4688V4.63633H15.5312V12.6943H16.9757V10.699C16.9757 10.3044 17.2959 9.98422 17.6905 9.98422H53.3095C53.7041 9.98422 54.0243 10.3044 54.0243 10.699V12.6939ZM49.974 12.6642H52.5947V11.4134H49.974V12.6642ZM45.3877 12.6642H48.5445V11.4134H45.3877V12.6642ZM40.8011 12.6642H43.9582V11.4134H40.8011V12.6642ZM36.2148 12.6642H39.3715V11.4134H36.2148V12.6642ZM31.6285 12.6642H34.7852V11.4134H31.6285V12.6642ZM27.0418 12.6642H30.1989V11.4134H27.0418V12.6642ZM22.4555 12.6642H25.6123V11.4134H22.4555V12.6642ZM18.4053 12.6642H21.026V11.4134H18.4053V12.6642ZM15.5312 3.2068H55.4688V1.89627H15.5312V3.2068ZM55.6597 52.3692C49.0906 52.3692 43.7466 47.0253 43.7466 40.4566C43.7466 33.8878 49.0906 28.5439 55.6597 28.5439C62.2284 28.5439 67.5723 33.8878 67.5723 40.4566C67.5723 47.0249 62.2284 52.3692 55.6597 52.3692ZM55.6597 29.9731C49.879 29.9731 45.1762 34.6759 45.1762 40.4562C45.1762 46.2365 49.879 50.9393 55.6597 50.9393C61.44 50.9393 66.1428 46.2365 66.1428 40.4562C66.1428 34.6759 61.44 29.9731 55.6597 29.9731ZM15.3403 52.3692C8.77163 52.3692 3.42767 47.0253 3.42767 40.4566C3.42767 33.8878 8.77163 28.5439 15.3403 28.5439C21.9094 28.5439 27.2534 33.8878 27.2534 40.4566C27.2534 47.0249 21.9094 52.3692 15.3403 52.3692ZM15.3403 29.9731C9.56002 29.9731 4.8572 34.6759 4.8572 40.4562C4.8572 46.2365 9.56002 50.9393 15.3403 50.9393C21.121 50.9393 25.8238 46.2365 25.8238 40.4562C25.8238 34.6759 21.121 29.9731 15.3403 29.9731ZM40.7217 51.2728H30.2783C29.8837 51.2728 29.5635 50.9525 29.5635 50.558V42.0998C29.5635 41.7052 29.8837 41.385 30.2783 41.385H40.7221C41.1166 41.385 41.4369 41.7052 41.4369 42.0998V50.558C41.4365 50.9529 41.1166 51.2728 40.7217 51.2728ZM30.993 49.8432H40.0073V45.5082H30.993V49.8432ZM30.993 44.0786H40.0073V42.8146H30.993V44.0786ZM55.6597 49.4801C50.6838 49.4801 46.6357 45.432 46.6357 40.4562C46.6357 35.4803 50.6838 31.4323 55.6597 31.4323C56.0542 31.4323 56.3744 31.7525 56.3744 32.147C56.3744 32.5416 56.0542 32.8618 55.6597 32.8618C51.4718 32.8618 48.0653 36.2687 48.0653 40.4562C48.0653 44.6437 51.4718 48.0506 55.6597 48.0506C56.0542 48.0506 56.3744 48.3708 56.3744 48.7654C56.3744 49.1599 56.0546 49.4801 55.6597 49.4801ZM15.3403 49.4801C10.3645 49.4801 6.3164 45.432 6.3164 40.4562C6.3164 35.4803 10.3645 31.4323 15.3403 31.4323C15.7349 31.4323 16.0551 31.7525 16.0551 32.147C16.0551 32.5416 15.7349 32.8618 15.3403 32.8618C11.1525 32.8618 7.74594 36.2687 7.74594 40.4562C7.74594 44.6437 11.1525 48.0506 15.3403 48.0506C15.7349 48.0506 16.0551 48.3708 16.0551 48.7654C16.0551 49.1599 15.7349 49.4801 15.3403 49.4801ZM55.6597 44.5068C53.426 44.5068 51.6091 42.6898 51.6091 40.4566C51.6091 38.2233 53.426 36.4063 55.6597 36.4063C57.893 36.4063 59.7099 38.2233 59.7099 40.4566C59.7099 42.6898 57.893 44.5068 55.6597 44.5068ZM55.6597 37.8355C54.2144 37.8355 53.0386 39.0113 53.0386 40.4562C53.0386 41.9015 54.2144 43.0769 55.6597 43.0769C57.1046 43.0769 58.2804 41.9011 58.2804 40.4562C58.2804 39.0113 57.1046 37.8355 55.6597 37.8355ZM15.3403 44.5068C13.107 44.5068 11.2901 42.6898 11.2901 40.4566C11.2901 38.2233 13.107 36.4063 15.3403 36.4063C17.574 36.4063 19.3909 38.2233 19.3909 40.4566C19.3909 42.6898 17.574 44.5068 15.3403 44.5068ZM15.3403 37.8355C13.8954 37.8355 12.7196 39.0113 12.7196 40.4562C12.7196 41.9015 13.8954 43.0769 15.3403 43.0769C16.7856 43.0769 17.9614 41.9011 17.9614 40.4562C17.9614 39.0113 16.7856 37.8355 15.3403 37.8355ZM40.7217 39.5274H30.2783C29.8837 39.5274 29.5635 39.2071 29.5635 38.8126V30.3544C29.5635 29.9598 29.8837 29.6396 30.2783 29.6396H40.7221C41.1166 29.6396 41.4369 29.9598 41.4369 30.3544V38.8126C41.4365 39.2071 41.1166 39.5274 40.7217 39.5274ZM30.993 38.0978H40.0073V36.8338H30.993V38.0978ZM30.993 35.4042H40.0073V31.0692H30.993V35.4042ZM64.5682 21.8747C62.7637 21.8747 61.296 20.407 61.296 18.6025C61.296 16.7981 62.7637 15.3303 64.5682 15.3303C66.3722 15.3303 67.84 16.7981 67.84 18.6025C67.84 20.407 66.3722 21.8747 64.5682 21.8747ZM64.5682 16.7595C63.5521 16.7595 62.7255 17.5861 62.7255 18.6022C62.7255 19.6182 63.5521 20.4448 64.5682 20.4448C65.5842 20.4448 66.4105 19.6182 66.4105 18.6022C66.4105 17.5861 65.5842 16.7595 64.5682 16.7595ZM6.43184 21.8747C4.6274 21.8747 3.15963 20.407 3.15963 18.6025C3.15963 16.7981 4.6274 15.3303 6.43184 15.3303C8.23627 15.3303 9.70404 16.7981 9.70404 18.6025C9.70404 20.407 8.23627 21.8747 6.43184 21.8747ZM6.43184 16.7595C5.41579 16.7595 4.58916 17.5861 4.58916 18.6022C4.58916 19.6182 5.41579 20.4448 6.43184 20.4448C7.44788 20.4448 8.27451 19.6182 8.27451 18.6022C8.27451 17.5861 7.44788 16.7595 6.43184 16.7595ZM53.3095 21.5524C52.915 21.5524 52.5947 21.2322 52.5947 20.8376V17.3531H52.539C52.1444 17.3531 51.8242 17.0329 51.8242 16.6384C51.8242 16.2438 52.1444 15.9236 52.539 15.9236H52.6051C52.6626 15.5866 52.9561 15.33 53.3099 15.33C53.6637 15.33 53.9571 15.5866 54.0146 15.9236H54.0807C54.4753 15.9236 54.7955 16.2438 54.7955 16.6384C54.7955 17.0329 54.4753 17.3531 54.0807 17.3531H54.025V20.8376C54.0243 21.2325 53.7044 21.5524 53.3095 21.5524ZM49.3518 21.5524C48.9573 21.5524 48.6371 21.2322 48.6371 20.8376V19.8323H48.5813C48.1868 19.8323 47.8666 19.5121 47.8666 19.1175C47.8666 18.723 48.1868 18.4028 48.5813 18.4028H48.6371V16.0447C48.6371 15.6502 48.9573 15.33 49.3518 15.33C49.7464 15.33 50.0666 15.6502 50.0666 16.0447V18.4028H50.1224C50.5169 18.4028 50.8371 18.723 50.8371 19.1175C50.8371 19.5121 50.5169 19.8323 50.1224 19.8323H50.0666V20.8376C50.0666 21.2325 49.7464 21.5524 49.3518 21.5524ZM45.3942 21.5524C44.9993 21.5524 44.6794 21.2322 44.6794 20.8376V18.0679H44.624C44.2295 18.0679 43.9092 17.7477 43.9092 17.3531C43.9092 16.9586 44.2295 16.6384 44.624 16.6384H44.6794V16.0447C44.6794 15.6502 44.9993 15.33 45.3942 15.33C45.7887 15.33 46.1089 15.6502 46.1089 16.0447V16.6384H46.165C46.5596 16.6384 46.8798 16.9586 46.8798 17.3531C46.8798 17.7477 46.5596 18.0679 46.165 18.0679H46.1089V20.8376C46.1089 21.2325 45.7887 21.5524 45.3942 21.5524ZM41.4365 21.5524C41.042 21.5524 40.7217 21.2322 40.7217 20.8376V16.9289H40.666C40.2714 16.9289 39.9512 16.6087 39.9512 16.2141C39.9512 15.8196 40.2714 15.4994 40.666 15.4994H40.9748C41.2239 15.2882 41.6491 15.2882 41.8982 15.4994H42.207C42.6016 15.4994 42.9218 15.8196 42.9218 16.2141C42.9218 16.6087 42.6016 16.9289 42.207 16.9289H42.1513V20.838C42.1513 21.2325 41.8314 21.5524 41.4365 21.5524ZM37.4788 21.5524C37.0843 21.5524 36.7641 21.2322 36.7641 20.8376H36.7083C36.3138 20.8376 35.9935 20.5174 35.9935 20.1228C35.9935 19.7283 36.3138 19.4081 36.7083 19.4081H36.7641V16.0447C36.7641 15.6502 37.0843 15.33 37.4788 15.33C37.8734 15.33 38.1936 15.6502 38.1936 16.0447V19.4081H38.2494C38.6439 19.4081 38.9641 19.7283 38.9641 20.1228C38.9641 20.5174 38.6439 20.8376 38.2494 20.8376H38.1936C38.1936 21.2325 37.8737 21.5524 37.4788 21.5524ZM33.5212 21.5524C33.1266 21.5524 32.8064 21.2322 32.8064 20.8376V19.4081H32.7506C32.3561 19.4081 32.0359 19.0879 32.0359 18.6933C32.0359 18.2988 32.3561 17.9785 32.7506 17.9785H32.8064V16.0447C32.8064 15.6502 33.1266 15.33 33.5212 15.33C33.9157 15.33 34.2359 15.6502 34.2359 16.0447V17.9785H34.2917C34.6862 17.9785 35.0065 18.2988 35.0065 18.6933C35.0065 19.0879 34.6862 19.4081 34.2917 19.4081H34.2359V20.8376C34.2359 21.2325 33.9157 21.5524 33.5212 21.5524ZM29.5635 21.5524C29.1689 21.5524 28.8487 21.2322 28.8487 20.8376V20.4802H28.793C28.3984 20.4802 28.0782 20.16 28.0782 19.7655C28.0782 19.3709 28.3984 19.0507 28.793 19.0507H28.8487V16.0447C28.8487 15.6502 29.1689 15.33 29.5635 15.33C29.9581 15.33 30.2783 15.6502 30.2783 16.0447V19.0507H30.334C30.7286 19.0507 31.0488 19.3709 31.0488 19.7655C31.0488 20.16 30.7286 20.4802 30.334 20.4802H30.2783V20.8376C30.2783 21.2325 29.9581 21.5524 29.5635 21.5524ZM25.6055 21.5524C25.2885 21.5524 25.0201 21.3462 24.9264 21.061H24.855C24.4604 21.061 24.1402 20.7408 24.1402 20.3462C24.1402 19.9517 24.4604 19.6314 24.855 19.6314H24.8911V16.0447C24.8911 15.6502 25.2113 15.33 25.6058 15.33C26.0004 15.33 26.3206 15.6502 26.3206 16.0447V19.6314H26.3964C26.7909 19.6314 27.1111 19.9517 27.1111 20.3462C27.1111 20.7408 26.7909 21.061 26.3964 21.061H26.2849C26.1909 21.3462 25.9225 21.5524 25.6055 21.5524ZM21.6478 21.5524C21.2533 21.5524 20.933 21.2322 20.933 20.8376V18.0232H20.8773C20.4827 18.0232 20.1625 17.703 20.1625 17.3084C20.1625 16.9139 20.4827 16.5937 20.8773 16.5937H20.933V16.0447C20.933 15.6502 21.2533 15.33 21.6478 15.33C22.0424 15.33 22.3626 15.6502 22.3626 16.0447V16.5937H22.4183C22.8129 16.5937 23.1331 16.9139 23.1331 17.3084C23.1331 17.703 22.8129 18.0232 22.4183 18.0232H22.3626V20.8376C22.3626 21.2325 22.0427 21.5524 21.6478 21.5524ZM17.6905 21.5524C17.2959 21.5524 16.9757 21.2322 16.9757 20.8376V20.2122H16.92C16.5254 20.2122 16.2052 19.892 16.2052 19.4974C16.2052 19.1029 16.5254 18.7827 16.92 18.7827H16.9757V16.0447C16.9757 15.6502 17.2959 15.33 17.6905 15.33C18.085 15.33 18.4053 15.6502 18.4053 16.0447V18.7827H18.461C18.8556 18.7827 19.1758 19.1029 19.1758 19.4974C19.1758 19.892 18.8556 20.2122 18.461 20.2122H18.4053V20.8376C18.4053 21.2325 18.085 21.5524 17.6905 21.5524Z" fill="#EEEEEE"/>
</svg>
